<svg xmlns="http://www.w3.org/2000/svg" xmlns:xlink="http://www.w3.org/1999/xlink" version="1.1" x="0px" y="0px" viewBox="0 0 100 100" style="enable-background:new 0 0 100 100;" xml:space="preserve"><title>moto</title><path fill='#fff' d="M90.4,52.2L90.4,52.2c0.8-0.8,0.8-2,0-2.8c0,0,0,0,0,0c-2.8-2.8-6.6-4.4-10.6-4.4c-2.3,0-4.5,0.5-6.5,1.5l-2.7-3.9  c0.3,0,0.7,0.1,1,0.1c1.8,0,3.3-2.2,3.3-4.8S73.5,33,71.7,33c-2.2-0.1-4.4,0.8-5.8,2.5c-0.1-0.1-0.2-0.3-0.3-0.4l-4.9-7.2  c-0.4-0.6-1-0.9-1.7-0.9h-6c-1.1,0-2,0.9-2,2s0.9,2,2,2h4.9l1.4,2C50.2,33.6,43,38.3,43,44c0,0.6,0.4,1,1,1h-2.4  c-0.4,0-0.7,0.1-1,0.4l-3.2,3.2c-0.6,0.5-0.6,1.4,0,2c0.3,0.3,0.6,0.4,1,0.4h2c0.4,0,0.7-0.1,1-0.4l1.2-1.2c0.3-0.3,0.6-0.4,1-0.4h4  c0.8,0,1.4-0.6,1.4-1.4v-1.2c0-0.8-0.6-1.4-1.4-1.4H55c-1.1,0-2,0.9-2,2h-1c-0.6,0-1,0.4-1,1s0.4,1,1,1h1v2h-1c-0.6,0-1,0.4-1,1  s0.4,1,1,1h1v2c0,1.1,0.9,2,2,2v1c0,0.6,0.4,1,1,1s1-0.4,1-1v-1c1.1,0,2-0.9,2-2v-2h1c0.6,0,1-0.4,1-1s-0.4-1-1-1h-1v-2h1  c0.6,0,1-0.4,1-1s-0.4-1-1-1h-1c0-1.1-0.9-2-2-2h4c1.9,0,3.7-0.9,4.8-2.4l1.2,1.8L57.8,61H35c0-0.3,0-0.7,0-1c0-2.8-0.9-5.4-2.5-7.7  l0.1-0.1c0.8-0.8,0.8-2,0-2.8c0,0,0,0,0,0c-5.9-5.9-15.4-5.9-21.2,0C8.6,52.2,7,56,7,60c0,1.1,0.9,2,2,2h0.2  c1.1,7.1,7.8,11.9,14.9,10.8c4.5-0.7,8.2-3.7,10-7.8h25c0.7,0,1.4-0.4,1.8-1l4.8-8.7c-0.5,1.5-0.8,3.1-0.8,4.7c0,1.1,0.9,2,2,2  c0.1,0,0.2,0,0.3,0c1.1,7.1,7.7,12,14.8,10.9s12-7.7,10.9-14.8C92.5,56,91.7,54,90.4,52.2z M22,69c-5,0-9-4-9-9s4-9,9-9s9,4,9,9  c0,0.3,0,0.7-0.1,1h-4c0.1-0.3,0.1-0.7,0.1-1c0-2.8-2.2-5-5-5s-5,2.2-5,5c0,0.3,0,0.7,0.1,1H15v4h14.5C27.8,67.5,25,69,22,69z   M69.6,48.1l0.4,0.6c-0.6,0.5-1.2,1.1-1.7,1.7L69.6,48.1z M80,69c-5,0-9-4-9-9c0-2.3,0.9-4.5,2.4-6.1l2.3,3.5  C75.3,58.1,75,59.1,75,60c0,2.8,2.2,5,5,5s5-2.2,5-5s-2.2-5-5-5c-0.3,0-0.6,0-0.9,0.1l-2.3-3.5c4.6-1.8,9.8,0.5,11.7,5.1  c1.8,4.6-0.5,9.8-5.1,11.7C82.3,68.8,81.1,69,80,69z"/><path fill='#fff'  d="M51,56c0-2.8-2.2-5-5-5c-1.6,0-3.1,0.7-4,2h-3c-1.1,0-2,0.9-2,2v2c0,1.1,0.9,2,2,2h3c1.7,2.2,4.8,2.7,7,1  C50.3,59.1,51,57.6,51,56z"/><path fill='#fff' d="M30,46c0.5,0.6,1.3,0.8,2,0.5l8.2-4.1c0.8-0.4,1.1-1.3,0.7-2.1c-0.3-0.5-0.8-0.9-1.4-0.9h-8c-0.4,0-0.8-0.1-1.1-0.4  l-3.5-3.5c-0.6-0.6-1.6-0.6-2.2,0L24.1,36c-0.5,0.6-0.6,1.4-0.1,2L30,46z"/></svg>